HIERARCHY
ROOT pelvis
{
  OFFSET 0 100 0
  CHANNELS 6 Xposition Yposition Zposition Zrotation Xrotation Yrotation
  JOINT pelvis_right_femur
  {
    OFFSET -10.78128 -3.44521 -0.5502486
    CHANNELS 3 Zrotation Xrotation Yrotation
    JOINT right_femur_tibia
    {
      OFFSET -0.8047443 -44.0398 -0.1307829
      CHANNELS 3 Zrotation Xrotation Yrotation
      JOINT right_tibia_foot
      {
        OFFSET 3.006224 -47.83518 -5
        CHANNELS 3 Zrotation Xrotation Yrotation
        End Site
        {
          OFFSET 0 -5 15
        }
      }
    }
  }
  JOINT pelvis_left_femur
  {
    OFFSET 10.78128 -3.44521 -0.5502486
    CHANNELS 3 Zrotation Xrotation Yrotation
    JOINT left_femur_tibia
    {
      OFFSET 0.8047443 -44.0398 -0.1307829
      CHANNELS 3 Zrotation Xrotation Yrotation
      JOINT left_tibia_foot
      {
        OFFSET -4.370144 -48.10324 -4.275266
        CHANNELS 3 Zrotation Xrotation Yrotation
        End Site
        {
          OFFSET 0 -5 15
        }
      }
    }
  }
  JOINT pelvis_spine1
  {
    OFFSET 0 6.468898 -3.129235
    CHANNELS 3 Zrotation Xrotation Yrotation
    JOINT spine1
    {
      OFFSET 0 23.15396 4.99043
      CHANNELS 3 Zrotation Xrotation Yrotation
      JOINT spine2
      {
        OFFSET 0 20.79997 -5.064912
        CHANNELS 3 Zrotation Xrotation Yrotation
        JOINT neck
        {
          OFFSET 0 14.38658 9.616178
          CHANNELS 3 Zrotation Xrotation Yrotation
          End Site
          {
            OFFSET 0 20 0
          }
        }
      }
      JOINT right_manubrium
      {
        OFFSET -5.722621 16.35077 3.967754
        CHANNELS 3 Zrotation Xrotation Yrotation
        JOINT right_clavicle
        {
          OFFSET -13.16364 1.694482 -4.693211
          CHANNELS 3 Zrotation Xrotation Yrotation
          JOINT right_humerus
          {
            OFFSET -28.5034 -0.3100689 -2.792744
            CHANNELS 3 Zrotation Xrotation Yrotation
            JOINT right_radius
            {
              OFFSET -25.15693 0.02248979 -1.271978
              CHANNELS 3 Zrotation Xrotation Yrotation
              End Site
              {
                OFFSET -15 0 0
              }
            }
          }
        }
      }
      JOINT left_manubrium
      {
        OFFSET 5.722621 16.35077 3.967754
        CHANNELS 3 Zrotation Xrotation Yrotation
        JOINT left_clavicle
        {
          OFFSET 13.16364 1.694482 -4.693211
          CHANNELS 3 Zrotation Xrotation Yrotation
          JOINT left_humerus
          {
            OFFSET 29.39168 -1.063119 -2.237045
            CHANNELS 3 Zrotation Xrotation Yrotation
            JOINT left_radius
            {
              OFFSET 24.59957 -0.9528479 0.9047498
              CHANNELS 3 Zrotation Xrotation Yrotation
              End Site
              {
                OFFSET 15 -0 -0
              }
            }
          }
        }
      }
    }
  }
}
MOTION
Frames: 21
Frame Time: 0.0416666666667
0 103.5113 0 0.7760013 -0.1179082 -0.1779595 4.230038 -16.93289 10.80892 -0 40.3306 -0 -5.077581 -17.56951 -2.548145 -7.205452 8.474507 -22.89894 -0 6.93726 -0 13.94041 -12.88559 29.13601 -3.786476 -4.142119 5.246301 2.979685 10.72193 -7.889802 1.29152 21.37359 6.5406 2.798565 -25.20842 9.536588 7.035306 -20.70488 12.2095 84.65228 37.2738 -17.53477 -0 0 17.53732 -6.471996 7.9673 4.426275 5.693397 -19.13524 -0.9158343 -92.47111 20.65446 21.28995 0 0 -13.96498 14.70783 13.87224 -3.652831
0.3871105 103.9274 1.555389 0.7478941 0.02972045 -0.3389057 4.301609 -17.81192 10.51932 -0 39.29968 -0 -5.080146 -17.01533 -2.426672 -7.168991 8.600065 -22.58738 -0 6.662705 -0 13.99328 -13.21599 28.92169 -3.781322 -4.013574 5.225091 2.983102 10.73137 -7.89695 1.300498 21.30854 6.563609 2.854972 -25.21583 9.522042 6.992441 -20.61668 12.19786 84.72963 37.3331 -17.62634 -0 0 17.30981 -6.654868 8.057966 4.470402 5.83758 -19.33373 -0.9853571 -92.14302 20.38434 20.87803 0 0 -14.47198 15.05535 13.69927 -4.024501
0.7617176 104.0226 3.600801 0.5605691 1.468313 -0.3053433 5.529292 -23.88868 9.800464 -0 32.79784 -0 -5.108933 -13.93245 -1.68793 -7.342523 10.09779 -21.60587 -0 4.643967 -0 13.51246 -16.59226 28.20291 -3.687425 -3.066967 5.431269 2.924967 10.14675 -7.551149 1.684634 21.01093 6.279285 3.03678 -25.94815 9.595468 6.326703 -20.30549 11.55663 85.38299 37.01169 -18.50322 -0 0 16.27949 -4.898524 6.46079 3.591865 6.726403 -19.94488 -1.156023 -91.72838 21.95091 20.11202 0 0 -18.13105 14.96089 12.91907 -3.241756
1.121989 103.9038 6.068151 0.3422439 2.405201 -0.1326719 6.295352 -27.7354 9.055043 -0 28.51658 -0 -5.349186 -11.58756 -1.133831 -7.323597 11.03506 -20.57624 -0 4.254854 -0 13.01192 -18.37396 27.22508 -3.514114 -2.522491 5.392268 2.901484 9.872579 -7.446589 1.825743 20.81242 6.190065 3.201406 -26.20034 9.563733 5.971834 -19.91589 11.2083 85.81139 37.00416 -19.09016 -0 0 15.42616 -4.379373 5.866089 3.215331 7.291623 -20.47563 -1.297402 -91.13294 22.2049 19.21849 0 0 -20.24062 15.39808 12.4049 -3.498647
1.452873 103.6113 9.082536 0.004141812 3.232886 0.1703015 6.936621 -31.28509 8.00932 -0 23.91212 -0 -5.781814 -8.855309 -0.7581224 -7.132589 12.2219 -19.15083 -0 4.909883 -0 11.85541 -19.95696 25.52518 -3.221673 -2.077965 5.10333 2.952334 9.65401 -7.538516 1.830768 20.64698 6.246325 3.350377 -26.28799 9.487535 5.588373 -19.34011 10.93351 86.50437 36.91321 -20.01795 -0 0 14.14288 -4.611938 5.860079 3.17179 7.697745 -21.16624 -1.527679 -90.37086 22.34133 18.15224 0 0 -22.2523 15.33988 12.13365 -3.269843
1.749444 103.2186 12.65767 -0.3837274 3.824908 0.5664962 7.428287 -33.83024 6.986232 -0 20.02019 -0 -6.312054 -6.355787 -0.5298196 -6.856914 13.30934 -17.67495 -0 6.69059 -0 10.38799 -20.85193 23.55445 -2.828082 -1.811259 4.72331 3.020095 9.542495 -7.72677 1.752349 20.51966 6.352165 3.449984 -26.25186 9.372787 5.235939 -18.75329 10.74997 87.27654 36.69673 -21.00807 -0 0 12.83345 -5.226839 6.156944 3.305425 7.901564 -21.81811 -1.782004 -89.65719 22.25194 17.21416 0 0 -23.73401 15.08723 11.97954 -2.916204
2.007681 102.8061 16.83209 -0.8165305 4.17483 1.016632 7.806034 -35.43683 5.966627 -0 16.64213 -0 -6.908421 -4.012611 -0.4401743 -6.492459 14.27561 -16.0916 -0 9.757351 -0 8.601923 -21.03061 21.29098 -2.31599 -1.695993 4.284254 3.093956 9.551108 -7.993511 1.605767 20.41259 6.491172 3.498573 -26.11137 9.215318 4.884529 -18.16509 10.65359 88.16324 36.28703 -22.08703 -0 0 11.46851 -6.218444 6.729629 3.615675 7.909743 -22.4561 -2.08856 -88.95949 21.93726 16.38403 0 0 -24.81286 14.64468 11.86832 -2.411969
2.229251 102.4719 21.60238 -1.256805 4.250119 1.469291 8.113544 -35.93109 5.078934 -0 14.03448 -0 -7.514476 -2.025185 -0.4694892 -6.062065 14.93129 -14.51554 -0 14.13816 -0 6.6462 -20.3903 18.94184 -1.701773 -1.708652 3.866863 3.148274 9.683314 -8.281193 1.420319 20.32528 6.624582 3.495322 -25.89186 9.018265 4.558376 -17.63787 10.64076 89.06455 35.69956 -23.12501 -0 0 10.2111 -7.416103 7.449348 4.033567 7.719886 -23.00308 -2.432861 -88.37577 21.45912 15.79271 0 0 -25.39741 14.06055 11.74066 -1.797491
2.417607 102.3233 26.94463 -1.663733 4.007134 1.863124 8.358943 -35.18896 4.344754 -0 12.21682 -0 -8.088682 -0.4832931 -0.6034317 -5.567537 15.09275 -12.95818 -0 19.95134 -0 4.63258 -18.8694 16.62561 -1.003077 -1.814888 3.532768 3.16394 9.95558 -8.549994 1.209045 20.26269 6.733241 3.44521 -25.58801 8.771965 4.261596 -17.20545 10.7191 89.92654 34.93338 -24.04521 -0 0 9.129079 -8.791132 8.276102 4.544041 7.335621 -23.44441 -2.826624 -87.91898 20.82152 15.46905 0 0 -25.50044 13.3775 11.54767 -1.113941
2.577557 102.4725 32.78574 -1.982957 3.409367 2.12952 8.535617 -33.07484 3.802559 -0 11.25255 -0 -8.590078 0.4505089 -0.8171383 -5.016065 14.49705 -11.47978 -0 27.16055 -0 2.710421 -16.48522 14.52531 -0.2648502 -1.957146 3.360299 3.119029 10.36787 -8.740775 0.9910476 20.24233 6.795466 3.360236 -25.19958 8.472138 4.010413 -16.91609 10.89324 90.65133 34.03592 -24.72098 -0 0 8.340637 -10.25803 9.136673 5.109263 6.770743 -23.74413 -3.267154 -87.64377 20.09427 15.4854 0 0 -25.10774 12.62525 11.26943 -0.3815142
2.712159 103.0174 38.9933 -2.151652 2.424544 2.19994 8.597881 -29.48918 3.440216 -0 11.07433 -0 -8.99311 0.6278156 -1.073762 -4.414318 12.82443 -10.12093 -0 35.59919 -0 1.014926 -13.3595 12.80465 0.442681 -2.057307 3.431876 2.989986 10.91246 -8.786352 0.7852569 20.29359 6.794946 3.26092 -24.71666 8.11264 3.807968 -16.81984 11.16834 91.14401 33.06742 -25.02273 -0 0 7.94955 -11.75696 9.965716 5.700979 6.055914 -23.89078 -3.75454 -87.59305 19.36295 15.89675 0 0 -24.25734 11.82638 10.9151 0.3961254
2.821878 104.0096 45.36096 -2.108067 1.067898 2.024345 8.472546 -24.46569 3.213821 -0 11.46537 -0 -9.29802 -0.08434079 -1.307295 -3.776708 9.721318 -8.933265 -0 44.71583 -0 -0.3386734 -9.802828 11.61433 1.010501 -2.013111 3.826744 2.753104 11.54691 -8.60803 0.6151654 20.45421 6.723079 3.18422 -24.13352 7.693538 3.650014 -16.96837 11.53748 91.29257 32.14047 -24.80124 -0 0 8.069679 -13.19978 10.67245 6.280649 5.257211 -23.88639 -4.274462 -87.82549 18.76322 16.76637 0 0 -23.0304 10.99636 10.53962 1.241385
2.907211 105.405 51.62232 -1.807363 -0.5605196 1.597037 8.072072 -18.26281 3.028948 -0 11.97131 -0 -9.543029 -1.721044 -1.42056 -3.121959 4.897684 -7.94344 -0 53.40729 -0 -1.278685 -6.333388 11.04397 1.29746 -1.726479 4.593913 2.391463 12.18304 -8.137116 0.5005126 20.75627 6.589108 3.185565 -23.44632 7.218362 3.513608 -17.40127 11.9732 90.9916 31.41048 -23.92063 -0 0 8.79215 -14.50381 11.15419 6.816671 4.486375 -23.76853 -4.796036 -88.39296 18.43026 18.14208 0 0 -21.57774 10.15573 10.2412 2.188565
2.978729 107.0159 57.51284 -1.247746 -2.215475 0.9830683 7.338362 -11.45984 2.747492 -0 11.9474 -0 -9.797433 -4.131847 -1.300452 -2.458337 -1.658007 -7.124545 -0 59.83726 -0 -1.778001 -3.621624 11.08382 1.164185 -1.165672 5.706015 1.914947 12.67622 -7.359501 0.4395295 21.19316 6.431778 3.329013 -22.66369 6.693063 3.363162 -18.12738 12.41566 90.16285 31.06788 -22.30358 -0 0 10.15595 -15.60578 11.31483 7.3011 3.896923 -23.61264 -5.257824 -89.31154 18.42002 20.03621 0 0 -20.10704 9.351013 10.13232 3.246847
3.072273 108.5137 62.88882 -0.5019076 -3.502495 0.3184479 6.308384 -4.887232 2.227406 -0 10.85385 -0 -10.11096 -6.930312 -0.8760476 -1.740559 -9.390232 -6.345563 -0 61.64701 -0 -1.839107 -2.230876 11.5904 0.5612742 -0.458411 7.009174 1.389523 12.86815 -6.382891 0.3830211 21.67011 6.315655 3.641105 -21.82218 6.121985 3.171481 -19.12298 12.78019 88.79641 31.26205 -20.00049 -0 0 12.11545 -16.50086 11.13802 7.788967 3.627645 -23.51301 -5.564153 -90.49102 18.58867 22.39117 0 0 -18.83883 8.66812 10.25621 4.348208
3.256433 109.5354 67.84069 0.2475946 -4.00885 -0.2364371 5.178912 0.6665833 1.445993 -0 8.824306 -0 -10.41738 -9.601514 -0.2059692 -0.8255823 -17.00378 -5.364965 -0 56.85697 -0 -1.471113 -2.218495 12.30477 -0.3511831 0.06691343 8.206511 0.9507277 12.70457 -5.474408 0.2365514 21.9702 6.282271 4.021847 -21.01731 5.519973 2.963027 -20.37319 13.0002 86.99459 31.95701 -17.23212 -0 0 14.55341 -17.25214 10.81692 8.43722 3.684304 -23.51161 -5.605313 -91.66589 18.57245 25.05411 0 0 -17.93319 8.190793 10.48963 5.34719
3.615202 109.86 72.67098 0.7092522 -3.616696 -0.5703525 4.295377 4.870574 0.6553439 -0 6.997498 -0 -10.47493 -11.80948 0.4660689 0.4627591 -22.80678 -3.986336 -0 45.43331 -0 -0.681481 -2.928008 12.96776 -1.17012 0.02376224 8.946116 0.7471852 12.37219 -4.967187 -0.05337962 21.82026 6.24965 4.175 -20.41696 4.953783 2.822077 -21.93881 13.09091 85.00371 32.76134 -14.32881 -0 0 17.35094 -17.96802 10.85701 9.505097 3.834598 -23.50314 -5.329289 -92.46113 18.02563 27.79869 0 0 -17.41715 7.871049 10.58059 6.152969
4.204787 109.507 77.68846 0.6021824 -2.775547 -0.674115 4.005043 7.981803 0.3047484 -0 6.782142 -0 -10.0237 -13.66302 0.7886393 2.079233 -25.66171 -2.416483 -0 30.33367 -0 0.479672 -3.406714 13.50147 -1.441985 -0.7064345 9.017862 0.8159575 12.24374 -5.012972 -0.3644546 21.12198 5.975107 3.716104 -20.18745 4.579139 2.776942 -23.90205 13.13851 83.21461 32.93005 -11.56952 -0 0 20.38811 -18.78157 11.88355 11.23657 3.708949 -23.23043 -4.826657 -92.69362 17.0186 30.36973 0 0 -17.09613 7.449069 10.45555 6.874695
5.007352 108.6641 82.99149 -0.1172713 -2.324288 -0.6758034 4.427584 10.50126 0.578428 -0 8.360415 -0 -9.162389 -15.53939 0.5323973 3.641995 -25.78765 -1.350932 -0 16.35819 -0 1.790018 -3.203629 14.09741 -0.9859098 -1.774698 8.486742 1.008943 12.53033 -5.388102 -0.4131997 20.19128 5.24662 2.506436 -20.3268 4.581537 2.616585 -26.10833 13.15208 82.10564 31.73197 -9.090984 -0 0 23.34577 -19.83609 14.02237 13.61576 3.155588 -22.46248 -4.306327 -92.63861 16.10752 32.45062 0 0 -16.47942 6.658068 10.5205 7.693701
5.916535 107.551 88.46048 -1.171738 -2.858777 -0.8248933 5.347209 12.74345 1.093088 -0 10.4018 -0 -8.45382 -17.53749 -0.2320788 4.75258 -24.41322 -1.384288 -0 7.169135 -0 2.797152 -2.615343 15.03702 -0.01149257 -2.615219 7.596192 1.083465 13.01433 -5.630354 0.01013886 19.63208 4.142106 0.8682123 -20.60038 5.027605 1.933762 -28.04027 12.95928 82.0708 28.97374 -6.975144 -0 0 25.59789 -21.14903 16.47547 16.21606 2.447573 -21.21122 -3.944289 -92.82932 15.86386 33.67471 0 0 -14.99658 5.523143 11.38497 8.604161
6.77863 106.3383 93.92921 -2.183571 -4.31445 -1.336484 6.366767 14.75764 1.288584 -0 11.57699 -0 -8.430689 -19.26873 -1.219795 5.25663 -22.67897 -2.490516 -0 3.402585 -0 3.079111 -2.169558 16.37447 1.083295 -2.910135 6.592129 0.8920007 13.27246 -5.418407 0.8584863 19.8526 2.969273 -0.6671172 -20.72559 5.791016 0.493913 -29.16145 12.38437 83.16745 25.12243 -5.317164 -0 0 26.5863 -22.4543 18.06828 18.39932 1.994881 -19.73263 -3.787747 -93.56137 16.43744 33.87849 0 0 -12.51574 4.294085 13.19575 9.46932
